HIERARCHY
ROOT hip
{
  OFFSET 0 0 0
  CHANNELS 6 Xposition Yposition Zposition Zrotation Yrotation Xrotation
  JOINT abdomen
  {
    OFFSET 0 20.6881 -0.73152
    CHANNELS 3 Zrotation Xrotation Yrotation
    JOINT chest
    {
      OFFSET 0 11.7043 -0.48768
      CHANNELS 3 Zrotation Xrotation Yrotation
      JOINT neck
      {
        OFFSET 0 22.1894 -2.19456
        CHANNELS 3 Zrotation Xrotation Yrotation
        JOINT head
        {
          OFFSET -0.24384 7.07133 1.2192
          CHANNELS 3 Zrotation Xrotation Yrotation
          JOINT leftEye
          {
            OFFSET 4.14528 8.04674 8.04672
            CHANNELS 3 Zrotation Xrotation Yrotation
            End Site
            {
              OFFSET 1 0 0
            }
          }
          JOINT rightEye
          {
            OFFSET -3.6576 8.04674 8.04672
            CHANNELS 3 Zrotation Xrotation Yrotation
            End Site
            {
              OFFSET 1 0 0
            }
          }
        }
      }
      JOINT rCollar
      {
        OFFSET -2.68224 19.2634 -4.8768
        CHANNELS 3 Zrotation Xrotation Yrotation
        JOINT rShldr
        {
          OFFSET -8.77824 -1.95073 1.46304
          CHANNELS 3 Zrotation Xrotation Yrotation
          JOINT rForeArm
          {
            OFFSET -28.1742 -1.7115 0.48768
            CHANNELS 3 Zrotation Xrotation Yrotation
            JOINT rHand
            {
              OFFSET -22.5879 0.773209 7.07136
              CHANNELS 3 Zrotation Xrotation Yrotation
              JOINT rThumb1
              {
                OFFSET -1.2192 -0.487915 3.41376
                CHANNELS 3 Zrotation Xrotation Yrotation
                JOINT rThumb2
                {
                  OFFSET -3.37035 -0.52449 3.41376
                  CHANNELS 3 Zrotation Xrotation Yrotation
                  End Site
                  {
                    OFFSET -1.78271 -1.18214 1.43049
                  }
                }
              }
              JOINT rIndex1
              {
                OFFSET -7.75947 0.938293 5.60832
                CHANNELS 3 Zrotation Xrotation Yrotation
                JOINT rIndex2
                {
                  OFFSET -2.54057 -0.884171 1.56538
                  CHANNELS 3 Zrotation Xrotation Yrotation
                  End Site
                  {
                    OFFSET -1.62519 -0.234802 1.16502
                  }
                }
              }
              JOINT rMid1
              {
                OFFSET -8.24714 1.18213 3.41376
                CHANNELS 3 Zrotation Xrotation Yrotation
                JOINT rMid2
                {
                  OFFSET -3.10165 -0.590103 1.0647
                  CHANNELS 3 Zrotation Xrotation Yrotation
                  End Site
                  {
                    OFFSET -2.48547 -0.328903 0.83742
                  }
                }
              }
              JOINT rRing1
              {
                OFFSET -8.82822 0.546677 1.51678
                CHANNELS 3 Zrotation Xrotation Yrotation
                JOINT rRing2
                {
                  OFFSET -2.60934 -0.819778 -0.0198488
                  CHANNELS 3 Zrotation Xrotation Yrotation
                  End Site
                  {
                    OFFSET -2.33842 -0.294052 0.168128
                  }
                }
              }
              JOINT rPinky1
              {
                OFFSET -8.27202 -0.0477905 -0.4584
                CHANNELS 3 Zrotation Xrotation Yrotation
                JOINT rPinky2
                {
                  OFFSET -1.82734 -0.647385 -0.700984
                  CHANNELS 3 Zrotation Xrotation Yrotation
                  End Site
                  {
                    OFFSET -1.69225 -0.51767 -0.607171
                  }
                }
              }
            }
          }
        }
      }
      JOINT lCollar
      {
        OFFSET 2.68224 19.2634 -4.8768
        CHANNELS 3 Zrotation Xrotation Yrotation
        JOINT lShldr
        {
          OFFSET 8.77824 -1.95073 1.46304
          CHANNELS 3 Zrotation Xrotation Yrotation
          JOINT lForeArm
          {
            OFFSET 28.1742 -1.7115 0.48768
            CHANNELS 3 Zrotation Xrotation Yrotation
            JOINT lHand
            {
              OFFSET 22.5879 0.773209 7.07136
              CHANNELS 3 Zrotation Xrotation Yrotation
              JOINT lThumb1
              {
                OFFSET 1.2192 -0.487915 3.41376
                CHANNELS 3 Zrotation Xrotation Yrotation
                JOINT lThumb2
                {
                  OFFSET 3.37035 -0.52449 3.41376
                  CHANNELS 3 Zrotation Xrotation Yrotation
                  End Site
                  {
                    OFFSET 1.78271 -1.18214 1.43049
                  }
                }
              }
              JOINT lIndex1
              {
                OFFSET 7.75947 0.938293 5.60832
                CHANNELS 3 Zrotation Xrotation Yrotation
                JOINT lIndex2
                {
                  OFFSET 2.54057 -0.884171 1.56538
                  CHANNELS 3 Zrotation Xrotation Yrotation
                  End Site
                  {
                    OFFSET 1.62519 -0.234802 1.16502
                  }
                }
              }
              JOINT lMid1
              {
                OFFSET 8.24714 1.18213 3.41376
                CHANNELS 3 Zrotation Xrotation Yrotation
                JOINT lMid2
                {
                  OFFSET 3.10165 -0.590103 1.0647
                  CHANNELS 3 Zrotation Xrotation Yrotation
                  End Site
                  {
                    OFFSET 2.48547 -0.328903 0.83742
                  }
                }
              }
              JOINT lRing1
              {
                OFFSET 8.82822 0.546677 1.51678
                CHANNELS 3 Zrotation Xrotation Yrotation
                JOINT lRing2
                {
                  OFFSET 2.60934 -0.819778 -0.0198488
                  CHANNELS 3 Zrotation Xrotation Yrotation
                  End Site
                  {
                    OFFSET 2.33842 -0.294052 0.168128
                  }
                }
              }
              JOINT lPinky1
              {
                OFFSET 8.27202 -0.0477905 -0.4584
                CHANNELS 3 Zrotation Xrotation Yrotation
                JOINT lPinky2
                {
                  OFFSET 1.82734 -0.647385 -0.700984
                  CHANNELS 3 Zrotation Xrotation Yrotation
                  End Site
                  {
                    OFFSET 1.69225 -0.51767 -0.607171
                  }
                }
              }
            }
          }
        }
      }
    }
  }
  JOINT rButtock
  {
    OFFSET -8.77824 4.35084 1.2192
    CHANNELS 3 Zrotation Xrotation Yrotation
    JOINT rThigh
    {
      OFFSET 0 -1.70687 -2.19456
      CHANNELS 3 Zrotation Xrotation Yrotation
      JOINT rShin
      {
        OFFSET 0 -36.8199 0.73152
        CHANNELS 3 Zrotation Xrotation Yrotation
        JOINT rFoot
        {
          OFFSET 0.73152 -45.1104 -5.12064
          CHANNELS 3 Zrotation Xrotation Yrotation
          End Site
          {
            OFFSET -1.1221 -3.69964 12.103
          }
        }
      }
    }
  }
  JOINT lButtock
  {
    OFFSET 8.77824 4.35084 1.2192
    CHANNELS 3 Zrotation Xrotation Yrotation
    JOINT lThigh
    {
      OFFSET 0 -1.70687 -2.19456
      CHANNELS 3 Zrotation Xrotation Yrotation
      JOINT lShin
      {
        OFFSET 0 -36.8199 0.73152
        CHANNELS 3 Zrotation Xrotation Yrotation
        JOINT lFoot
        {
          OFFSET -0.73152 -45.1104 -5.12064
          CHANNELS 3 Zrotation Xrotation Yrotation
          End Site
          {
            OFFSET 1.1221 -3.69964 12.103
          }
        }
      }
    }
  }
}
MOTION
Frames:	6
Frame Time:	0.00833333
-4.08289 84.2564 34.9533 0.0 0.0 0.0 -1.24151 -0.00398119 -0.0340788 -0.342494 -0.00249265 -0.0593271 -7.80326e-14 -1.59028e-15 1.36665e-16 -2.3437e-13 3.18055e-15 3.69615e-16 -0.0 0.0 0.0 -0.0 0.0 0.0 -3.88159e-14 -9.68687e-17 1.49089e-16 -8.1764e-13 -2.00027e-15 -9.93923e-16 -1.41128e-11 4.15738e-12 1.46306e-13 -1.61584e-10 -4.59461e-12 -4.13472e-14 -3.81141e-10 -9.46847e-13 2.79889e-13 -6.58223e-10 -1.63162e-12 4.8583e-13 -3.81139e-10 -9.44625e-13 2.63986e-13 7.73091 5.47488 0.417314 -3.81141e-10 -9.46513e-13 2.79889e-13 2.90554 0.965183 0.102902 -3.81132e-10 -9.46314e-13 2.71937e-13 10.2786 0.731801 0.0259123 -3.81146e-10 -9.45022e-13 2.70347e-13 2.22167 -0.733487 -0.20892 -3.87127e-14 -9.43451e-17 -4.96962e-17 -8.22819e-13 -1.81391e-15 -2.38542e-15 -1.41266e-11 -4.28699e-12 1.46306e-13 -1.61574e-10 3.87064e-12 -3.18055e-14 -3.81145e-10 -9.07173e-13 2.70347e-13 -6.58213e-10 -1.56483e-12 4.92986e-13 -3.81151e-10 -9.04868e-13 2.76708e-13 -7.73091 5.47488 -0.417314 -3.81147e-10 -9.0616e-13 2.73528e-13 -2.90554 0.965183 -0.102902 -3.81156e-10 -9.06856e-13 2.73528e-13 -10.2786 0.731801 -0.0259123 -3.81141e-10 -9.07253e-13 2.70347e-13 -2.22167 -0.733487 0.20892 -2.03217e-16 0.0 -3.88251e-19 -0.45384 -1.92099 -0.00952712 -0.00915561 -2.07857 -0.0755522 -0.487453 3.99699 0.136653 2.03217e-16 0.0 3.88251e-19 -1.43728 -5.97115 0.129662 -0.00126419 5.25795 -0.0454134 0.507826 0.710745 -0.0722753
-5.19601 84.0237 34.0984 -4.1132 -2.6597 0.9544 0.0112866 1.54797 0.337333 -0.226901 -0.749013 0.0743895 -0.199078 0.604438 -0.126248 0.546836 -0.175443 -0.201898 -0.0 0.0 0.0 -0.0 0.0 0.0 -6.96334e-14 -5.2757e-15 -4.15856e-15 22.8584 8.16513 -3.26633 -6.46079 -3.58142 9.29132 0.0288057 3.76627 0.525191 -9.36067e-11 -2.97361e-10 2.21947e-10 -1.59669e-10 -5.14138e-10 3.81578e-10 -9.36051e-11 -2.97358e-10 2.21932e-10 7.73091 5.47488 0.417314 -9.36084e-11 -2.97359e-10 2.21949e-10 2.90554 0.965183 0.102902 -9.36005e-11 -2.97358e-10 2.21943e-10 10.2786 0.731801 0.0259123 -9.36106e-11 -2.97356e-10 2.21942e-10 2.22167 -0.733487 -0.20892 -6.95749e-14 -5.27444e-15 -4.41752e-15 -23.523 8.93834 1.47489 5.79312 -3.04589 -8.55389 -0.00901345 2.1062 -0.295285 5.83734e-11 3.86889e-10 1.86536e-10 1.0258e-10 6.67969e-10 3.19747e-10 5.83664e-11 3.86892e-10 1.86545e-10 -7.73091 5.47488 -0.417314 5.8374e-11 3.86891e-10 1.86537e-10 -2.90554 0.965183 -0.102902 5.83635e-11 3.8689e-10 1.86538e-10 -10.2786 0.731801 -0.0259123 5.83749e-11 3.86889e-10 1.86532e-10 -2.22167 -0.733487 0.20892 -2.03217e-16 0.0 -3.88251e-19 -0.9406 -0.698798 0.86894 -0.0050427 -1.50671 -0.0472951 -0.544444 -0.558399 -3.01029 2.03217e-16 0.0 3.88251e-19 1.81457 -7.33059 -1.85242 -0.0126609 10.1246 -0.171316 0.846936 -4.22391 3.57323
-5.19361 84.0239 34.1009 -4.0956 -2.6685 0.9489 1.31283 3.18838 0.730498 -0.100951 -1.53813 0.215704 -0.407949 1.24247 -0.259447 1.12701 -0.360232 -0.414469 -0.0 0.0 0.0 -0.0 0.0 0.0 -1.03706e-13 -1.04778e-14 -7.07239e-15 48.0739 16.7065 -6.9455 -12.0433 -7.05333 19.2274 -0.0164478 7.74733 1.08808 2.17644e-10 -6.2391e-10 4.70804e-10 3.80096e-10 -1.0788e-09 8.09481e-10 2.17645e-10 -6.23905e-10 4.7079e-10 7.73091 5.47488 0.417314 2.1764e-10 -6.23906e-10 4.70808e-10 2.90554 0.965183 0.102902 2.17647e-10 -6.23905e-10 4.70803e-10 10.2786 0.731801 0.0259123 2.17641e-10 -6.23902e-10 4.70803e-10 2.22167 -0.733487 -0.20892 -1.03695e-13 -1.04779e-14 -7.39852e-15 -48.9144 18.3672 3.15883 10.9399 -6.03993 -17.6737 0.00512696 4.3334 -0.608889 5.38909e-10 8.17727e-10 3.97502e-10 9.34447e-10 1.41187e-09 6.81426e-10 5.38902e-10 8.17731e-10 3.97513e-10 -7.73091 5.47488 -0.417314 5.38913e-10 8.17731e-10 3.97501e-10 -2.90554 0.965183 -0.102902 5.389e-10 8.1773e-10 3.97503e-10 -10.2786 0.731801 -0.0259123 5.38908e-10 8.17727e-10 3.97494e-10 -2.22167 -0.733487 0.20892 -2.03217e-16 0.0 -3.88251e-19 -1.4962 0.593862 1.79692 -0.00130775 -0.902196 -0.0174415 -1.14943 -5.34329 -6.36445 2.03217e-16 0.0 3.88251e-19 5.14866 -8.75369 -3.96163 -0.000511445 15.2687 -0.310063 1.89435 -9.37759 7.50757
-5.19365 84.0235 34.1016 -4.0858 -2.691 0.9496 2.45636 4.65111 1.08335 0.0147427 -2.24201 0.342066 -0.589238 1.81328 -0.378912 1.6368 -0.526301 -0.605715 -0.0 0.0 0.0 -0.0 0.0 0.0 -1.31268e-13 -1.56334e-14 -1.27739e-14 71.5797 24.1614 -10.6412 -16.01 -9.61573 28.2507 -0.124174 11.295 1.60323 4.81462e-10 -8.9019e-10 6.65282e-10 8.37438e-10 -1.53915e-09 1.14376e-09 4.81463e-10 -8.90184e-10 6.65269e-10 7.73091 5.47488 0.417314 4.81457e-10 -8.90185e-10 6.65288e-10 2.90554 0.965183 0.102902 4.81462e-10 -8.90182e-10 6.65284e-10 10.2786 0.731801 0.0259123 4.8146e-10 -8.90179e-10 6.65286e-10 2.22167 -0.733487 -0.20892 -1.31299e-13 -1.56346e-14 -1.31532e-14 -72.0883 26.7395 4.89551 14.7285 -8.3246 -25.9181 0.0384239 6.31792 -0.890665 9.3741e-10 1.16248e-09 5.59067e-10 1.62417e-09 2.00704e-09 9.58255e-10 9.37402e-10 1.16249e-09 5.59081e-10 -7.73091 5.47488 -0.417314 9.37415e-10 1.16249e-09 5.59065e-10 -2.90554 0.965183 -0.102902 9.37402e-10 1.16248e-09 5.59068e-10 -10.2786 0.731801 -0.0259123 9.37407e-10 1.16248e-09 5.59056e-10 -2.22167 -0.733487 0.20892 -2.03217e-16 0.0 -3.88251e-19 -2.02653 1.7435 2.62689 0.00149136 -0.362974 0.00916899 -2.16747 -9.54311 -9.4348 2.03217e-16 0.0 3.88251e-19 8.03272 -10.0093 -5.85922 0.0325857 19.8576 -0.441767 3.44331 -13.861 11.1642
-5.20591 84.0236 34.0841 -4.1263 -2.7362 0.9625 3.24755 5.67036 1.33238 0.0974249 -2.73289 0.430808 -0.707162 2.21603 -0.463884 1.97321 -0.645592 -0.743629 -0.0 0.0 0.0 -0.0 0.0 0.0 -1.42554e-13 -2.06724e-14 -2.54444e-14 88.619 29.2163 -13.5794 -18.2716 -10.9816 34.6322 -0.238095 13.7627 1.9727 6.267e-10 -1.0058e-09 7.23815e-10 1.08872e-09 -1.73872e-09 1.24399e-09 6.267e-10 -1.00579e-09 7.23802e-10 7.73091 5.47488 0.417314 6.26694e-10 -1.00579e-09 7.23821e-10 2.90554 0.965183 0.102902 6.26698e-10 -1.00579e-09 7.23818e-10 10.2786 0.731801 0.0259123 6.26697e-10 -1.00578e-09 7.23821e-10 2.22167 -0.733487 -0.20892 -1.42612e-13 -2.06744e-14 -2.5842e-14 -88.6019 32.5417 6.32047 16.9613 -9.61191 -31.7294 0.0732052 7.6964 -1.08828 1.13082e-09 1.29202e-09 5.97133e-10 1.95851e-09 2.23036e-09 1.02296e-09 1.13081e-09 1.29203e-09 5.97149e-10 -7.73091 5.47488 -0.417314 1.13083e-09 1.29203e-09 5.9713e-10 -2.90554 0.965183 -0.102902 1.13081e-09 1.29203e-09 5.97134e-10 -10.2786 0.731801 -0.0259123 1.13082e-09 1.29202e-09 5.97121e-10 -2.22167 -0.733487 0.20892 -2.03217e-16 0.0 -3.88251e-19 -2.41437 2.5379 3.2099 0.00314435 0.0130229 0.0276988 -3.14985 -12.4099 -11.6448 2.03217e-16 0.0 3.88251e-19 9.99314 -10.8795 -7.19449 0.068831 23.0586 -0.539789 4.88003 -16.8923 13.8346
-5.21691 84.022 34.0649 -4.1603 -2.7808 0.9861 3.56501 6.06809 1.43518 0.129278 -2.92571 0.466955 -0.734532 2.38508 -0.500542 2.06018 -0.698893 -0.808013 -0.0 0.0 0.0 -0.0 0.0 0.0 -1.28316e-13 -2.57721e-14 -5.03376e-14 95.4522 31.1628 -14.8388 -19.0562 -11.4031 37.1422 -0.291266 14.7184 2.11885 5.75217e-10 -8.67127e-10 5.60032e-10 9.98168e-10 -1.49828e-09 9.61597e-10 5.75216e-10 -8.6712e-10 5.60019e-10 7.73091 5.47488 0.417314 5.75213e-10 -8.67123e-10 5.60038e-10 2.90554 0.965183 0.102902 5.75216e-10 -8.67118e-10 5.60035e-10 10.2786 0.731801 0.0259123 5.75215e-10 -8.67116e-10 5.6004e-10 2.22167 -0.733487 -0.20892 -1.28382e-13 -2.5774e-14 -5.0701e-14 -95.1616 34.806 6.93716 17.7474 -10.0292 -34.0035 0.0891433 8.22253 -1.16421 9.99859e-10 1.06652e-09 4.19418e-10 1.73062e-09 1.84009e-09 7.16787e-10 9.9985e-10 1.06652e-09 4.19435e-10 -7.73091 5.47488 -0.417314 9.99865e-10 1.06652e-09 4.19416e-10 -2.90554 0.965183 -0.102902 9.99851e-10 1.06652e-09 4.19419e-10 -10.2786 0.731801 -0.0259123 9.99856e-10 1.06652e-09 4.19406e-10 -2.22167 -0.733487 0.20892 -2.03217e-16 0.0 -3.88251e-19 -2.56722 2.83444 3.44671 0.00372092 0.160603 0.0349138 -3.59484 -13.5084 -12.5265 2.03217e-16 0.0 3.88251e-19 10.7507 -11.2315 -7.72348 0.0852393 24.318 -0.580075 5.52675 -18.0522 14.9166
